#A cube

v -3 -1 1
v -3 1 1
v -1 1 1
v -1 -1 1
v -3 -1 -1
v -3 1 -1
v -1 1 -1
v -1 -1 -1

vt 0 0
vt 0 1
vt 1 1
vt 1 0
vt 0 0
vt 0 1
vt 1 1
vt 1 0

vn -0.577350269 -0.577350269 0.577350269
vn -0.577350269 0.577350269 0.577350269
vn 0.577350269 0.577350269 0.577350269
vn 0.577350269 -0.577350269 0.577350269
vn -0.577350269 -0.577350269 -0.577350269
vn -0.577350269 0.577350269 -0.577350269
vn 0.577350269 0.577350269 -0.577350269
vn 0.577350269 -0.577350269 -0.577350269

f 4/1/4 3/2/3 2/3/2
f 2/3/2 1/4/1 4/1/4
f 1/1/1 2/2/2 6/3/6
f 6/3/6 5/4/5 1/1/1
f 7/1/7 6/2/6 2/3/2
f 2/3/2 3/4/3 7/1/7
f 4/1/4 8/2/8 7/3/7
f 7/3/7 3/4/3 4/1/4
f 5/1/5 8/2/8 4/3/4
f 4/3/4 1/4/1 5/1/5
f 5/1/5 6/2/6 7/3/7
f 7/3/7 8/4/8 5/1/5