# Blender v2.68 (sub 0) OBJ File: ''
# www.blender.org
mtllib texGoodSphere2.mtl
o Icosphere
v 0.437153 -1.740394 -0.077142
v 1.160761 -1.187613 0.448583
v 0.160765 -1.187614 0.773507
v -0.457273 -1.187610 -0.077142
v 0.160765 -1.187614 -0.927791
v 1.160761 -1.187613 -0.602867
v 0.713541 -0.293174 0.773507
v -0.286454 -0.293174 0.448583
v -0.286454 -0.293174 -0.602867
v 0.713541 -0.293174 -0.927791
v 1.331580 -0.293178 -0.077142
v 0.437153 0.259606 -0.077142
v 0.862476 -1.591048 0.231869
v 0.700022 -1.266132 0.731870
v 0.274698 -1.591048 0.422853
v 0.862476 -1.591048 -0.386153
v 1.287801 -1.266130 -0.077142
v -0.251036 -1.266130 0.422855
v -0.088576 -1.591046 -0.077142
v -0.251036 -1.266130 -0.577139
v 0.274698 -1.591048 -0.577137
v 0.700022 -1.266132 -0.886154
v 1.388211 -0.740394 -0.386155
v 1.388211 -0.740394 0.231871
v 1.024939 -0.740394 0.731875
v 0.437153 -0.740394 0.922858
v -0.150632 -0.740394 0.731875
v -0.513905 -0.740394 0.231871
v -0.513905 -0.740394 -0.386155
v -0.150632 -0.740394 -0.886159
v 0.437153 -0.740394 -1.077142
v 1.024939 -0.740394 -0.886159
v 1.125343 -0.214658 0.422855
v 0.174284 -0.214656 0.731870
v -0.413495 -0.214658 -0.077142
v 0.174284 -0.214656 -0.886154
v 1.125343 -0.214658 -0.577139
v 0.962883 0.110258 -0.077142
v 0.599609 0.110260 0.422853
v 0.011831 0.110260 0.231869
v 0.011831 0.110260 -0.386153
v 0.599609 0.110260 -0.577137
vt 0.584083 0.499684
vt 0.454513 0.490003
vt 0.539254 0.387281
vt 0.335468 0.499751
vt 0.383232 0.617571
vt 0.666479 0.451323
vt 0.660365 0.593626
vt 0.529364 0.617530
vt 0.443617 0.067880
vt 0.542553 0.000000
vt 0.558982 0.119616
vt 0.919391 0.166039
vt 1.000000 0.114757
vt 0.998990 0.257190
vt 0.670936 0.175014
vt 0.789555 0.161007
vt 0.722889 0.291049
vt 0.108407 0.067820
vt 0.223665 0.119790
vt 0.095527 0.193597
vt 0.801515 0.387281
vt 0.927866 0.387329
vt 0.864471 0.488787
vt 0.430995 0.193684
vt 0.868928 0.285774
vt 0.326150 0.193832
vt 0.335223 0.313474
vt 0.223514 0.267665
vt 0.000151 0.119563
vt 0.718432 0.483513
vt 0.443875 0.319461
vt 0.559134 0.267490
vt 0.542951 0.387139
vt 0.208124 0.716715
vt 0.081852 0.721194
vt 0.141573 0.617530
vt 0.287705 0.617571
vt 0.216423 0.490003
vt 0.914934 0.608522
vt 0.995543 0.659804
vt 0.866105 0.719248
vt 0.666479 0.599547
vt 0.785098 0.613555
vt 0.720068 0.713972
vt 0.870563 0.055314
vt 0.393122 0.387320
vt 0.462812 0.716715
vt 0.724525 0.060589
vt 0.207483 0.000142
vt 0.335468 0.074210
vt 0.589085 0.721194
vt 0.069344 0.000000
vt 0.670691 0.073807
vt 0.661618 0.193448
vt 0.352636 0.721258
vt 0.335619 0.267718
vt 0.335468 0.119843
vt 0.805972 0.387281
vt 0.108149 0.319400
vt 0.994533 0.517371
vt 0.932324 0.387233
vt 0.404812 0.387281
vt 0.207085 0.387281
vt 0.318300 0.721258
vt 0.000000 0.267438
vt 0.010571 0.593626
vt 0.004457 0.451323
vt 0.086853 0.499684
vt 0.670936 0.313071
vt 0.131682 0.387281
vt 0.277815 0.387320
vn 0.000000 -1.000000 0.000000
vn 0.425306 -0.850642 0.309000
vn -0.162450 -0.850642 0.499985
vn 0.723594 -0.447188 0.525712
vn 0.850642 -0.525712 0.000000
vn -0.525712 -0.850642 0.000000
vn -0.162450 -0.850642 -0.499985
vn 0.425306 -0.850642 -0.309000
vn 0.951048 0.000000 0.309000
vn -0.276376 -0.447188 0.850642
vn 0.262856 -0.525712 0.808985
vn 0.000000 0.000000 1.000000
vn -0.894406 -0.447188 0.000000
vn -0.688162 -0.525712 0.499985
vn -0.951048 0.000000 0.309000
vn -0.276376 -0.447188 -0.850642
vn -0.688162 -0.525712 -0.499985
vn -0.587756 0.000000 -0.809015
vn 0.723594 -0.447188 -0.525712
vn 0.262856 -0.525712 -0.808985
vn 0.587756 0.000000 -0.809015
vn 0.587756 0.000000 0.809015
vn -0.587756 0.000000 0.809015
vn -0.951048 0.000000 -0.309000
vn 0.000000 0.000000 -1.000000
vn 0.951048 0.000000 -0.309000
vn 0.276376 0.447218 0.850642
vn 0.688162 0.525712 0.499985
vn 0.162450 0.850642 0.499985
vn -0.723594 0.447188 0.525712
vn -0.262856 0.525712 0.808985
vn -0.425306 0.850642 0.309000
vn -0.723594 0.447188 -0.525712
vn -0.850642 0.525712 0.000000
vn -0.425306 0.850642 -0.309000
vn 0.276376 0.447218 -0.850642
vn -0.262856 0.525712 -0.808985
vn 0.162450 0.850642 -0.499985
vn 0.894406 0.447188 0.000000
vn 0.688162 0.525712 -0.499985
vn 0.525712 0.850642 0.000000
vn 0.000000 1.000000 0.000000
usemtl Material.001
s 1
f 1/1/1 13/2/2 15/3/3
f 2/4/4 13/2/2 17/5/5
f 1/1/1 15/3/3 19/6/6
f 1/1/1 19/6/6 21/7/7
f 1/1/1 21/7/7 16/8/8
f 2/9/4 17/10/5 24/11/9
f 3/12/10 14/13/11 26/14/12
f 4/15/13 18/16/14 28/17/15
f 5/18/16 20/19/17 30/20/18
f 6/21/19 22/22/20 32/23/21
f 2/9/4 24/11/9 25/24/22
f 3/12/10 26/14/12 27/25/23
f 4/26/13 28/27/15 29/28/24
f 5/18/16 30/20/18 31/29/25
f 6/21/19 32/23/21 23/30/26
f 7/31/27 33/32/28 39/33/29
f 8/34/30 34/35/31 40/36/32
f 9/4/33 35/37/34 41/38/35
f 10/39/36 36/40/37 42/41/38
f 11/42/39 37/43/40 38/44/41
f 15/45/3 14/13/11 3/12/10
f 15/3/3 13/2/2 14/46/11
f 13/2/2 2/4/4 14/46/11
f 17/5/5 16/8/8 6/47/19
f 17/5/5 13/2/2 16/8/8
f 13/2/2 1/1/1 16/8/8
f 19/48/6 18/16/14 4/15/13
f 19/48/6 15/45/3 18/16/14
f 15/45/3 3/12/10 18/16/14
f 21/49/7 20/19/17 5/18/16
f 21/49/7 19/50/6 20/19/17
f 19/50/6 4/26/13 20/19/17
f 16/8/8 22/51/20 6/47/19
f 16/8/8 21/7/7 22/51/20
f 21/49/7 5/18/16 22/52/20
f 24/11/9 23/53/26 11/54/39
f 24/11/9 17/10/5 23/53/26
f 17/5/5 6/47/19 23/55/26
f 26/56/12 25/24/22 7/31/27
f 26/56/12 14/57/11 25/24/22
f 14/57/11 2/9/4 25/24/22
f 28/17/15 27/25/23 8/58/30
f 28/17/15 18/16/14 27/25/23
f 18/16/14 3/12/10 27/25/23
f 30/20/18 29/28/24 9/59/33
f 30/20/18 20/19/17 29/28/24
f 20/19/17 4/26/13 29/28/24
f 32/23/21 31/60/25 10/39/36
f 32/23/21 22/22/20 31/60/25
f 22/52/20 5/18/16 31/29/25
f 25/24/22 33/32/28 7/31/27
f 25/24/22 24/11/9 33/32/28
f 24/11/9 11/54/39 33/32/28
f 27/25/23 34/61/31 8/58/30
f 27/25/23 26/14/12 34/61/31
f 26/56/12 7/31/27 34/62/31
f 29/28/24 35/63/34 9/59/33
f 29/28/24 28/27/15 35/63/34
f 28/64/15 8/34/30 35/37/34
f 31/60/25 36/40/37 10/39/36
f 31/29/25 30/20/18 36/65/37
f 30/20/18 9/59/33 36/65/37
f 23/30/26 37/43/40 11/42/39
f 23/30/26 32/23/21 37/43/40
f 32/23/21 10/39/36 37/43/40
f 39/66/29 38/67/41 12/68/42
f 39/33/29 33/32/28 38/69/41
f 33/32/28 11/54/39 38/69/41
f 40/36/32 39/66/29 12/68/42
f 40/36/32 34/35/31 39/66/29
f 34/62/31 7/31/27 39/33/29
f 41/38/35 40/36/32 12/68/42
f 41/38/35 35/37/34 40/36/32
f 35/37/34 8/34/30 40/36/32
f 42/70/38 41/38/35 12/68/42
f 42/70/38 36/71/37 41/38/35
f 36/71/37 9/4/33 41/38/35
f 38/67/41 42/70/38 12/68/42
f 38/44/41 37/43/40 42/41/38
f 37/43/40 10/39/36 42/41/38
